<svg width="119" height="119" viewBox="0 0 119 119" fill="none" xmlns="http://www.w3.org/2000/svg">
<g clip-path="url(#clip0_2006_131)">
<path d="M118.104 69.6869C117.594 72.5393 111.498 74.3811 102.562 74.3811H102.336C98.9952 71.6609 94.9376 68.8935 90.3705 66.2961C89.0589 65.5499 87.7472 64.8415 86.4356 64.1803C87.9077 63.9914 89.3797 63.7742 90.8612 63.5192C95.9096 62.6408 100.684 61.4129 104.865 59.9583C113.206 62.9147 118.641 66.655 118.094 69.6774L118.104 69.6869ZM111.036 88.8323C110.215 90.2302 108.045 90.523 106.365 90.523C103.279 90.523 99.1651 89.5879 94.5885 87.9255C92.8145 84.9503 90.6064 81.7956 88.0398 78.5843C87.9548 78.4804 87.8605 78.367 87.7756 78.2631C87.5585 77.9892 87.3415 77.7247 87.115 77.4508C86.7942 77.0636 86.4734 76.6763 86.1431 76.2985C85.1712 75.1556 84.1804 74.0506 83.1896 72.9927C84.6144 73.3044 86.0676 73.5972 87.568 73.8522C92.5408 74.7117 97.4949 75.184 101.958 75.2218C108.771 80.8133 112.583 86.1687 111.026 88.8228L111.036 88.8323ZM79.8586 114.618C79.5944 114.712 79.3018 114.759 78.9999 114.759C76.018 114.759 71.8189 110.301 67.8463 103.472C68.5634 99.2692 68.9598 94.4333 68.9598 89.2479C68.9598 87.765 68.922 86.2915 68.856 84.8464C69.743 85.9893 70.6677 87.1322 71.6491 88.2845C74.0648 91.118 76.5559 93.7249 79.0188 96.0012C79.9529 96.8607 80.8683 97.6824 81.7836 98.4475C83.35 107.052 82.7838 113.569 79.8586 114.618ZM59.5047 118.16C56.3813 118.16 53.5882 112.228 52.0784 103.605C54.2298 99.8737 56.2964 95.4628 58.0704 90.6458C58.5894 89.2384 59.0612 87.85 59.5047 86.4804C59.9388 87.85 60.42 89.2384 60.939 90.6458C62.713 95.4534 64.7795 99.8643 66.931 103.605C65.4212 112.228 62.6281 118.16 59.5047 118.16ZM40.0095 114.769C39.7075 114.769 39.415 114.722 39.1508 114.627C36.2161 113.579 35.65 107.062 37.2258 98.4569C40.5568 95.6612 44.0293 92.1948 47.3508 88.2939C48.3322 87.151 49.257 85.9987 50.144 84.8559C50.0779 86.2915 50.0402 87.7555 50.0402 89.2573C50.0402 94.4427 50.4459 99.2787 51.1536 103.482C47.1904 110.311 42.9819 114.769 40.0095 114.769ZM23.2791 105.069C22.4298 105.069 21.7504 104.861 21.2503 104.445C19.5801 103.066 19.8821 99.3731 22.0807 94.3105C22.8639 92.5065 23.8547 90.5891 25.0248 88.6151C29.1484 87.0944 33.6306 85.007 38.0939 82.4662C39.4056 81.7201 40.6795 80.955 41.9156 80.1805C41.3494 81.5123 40.8116 82.8724 40.2926 84.2797C38.4903 89.1723 37.1881 93.8666 36.3954 98.0697C31.1678 102.433 26.393 105.069 23.2885 105.069H23.2791ZM12.635 90.5324C10.9554 90.5324 8.78508 90.2396 7.96412 88.8417C6.40715 86.1782 10.2194 80.8322 17.0323 75.2407C21.4862 75.2029 26.4402 74.7306 31.4225 73.8711C32.9229 73.6066 34.3855 73.3138 35.8104 73.0116C34.8196 74.0695 33.8288 75.1745 32.8568 76.3174C29.5542 80.1994 26.6856 84.1758 24.4303 87.9444C19.8443 89.6162 15.7301 90.5513 12.635 90.5513V90.5324ZM16.4378 74.3906C7.51119 74.3906 1.4154 72.5488 0.896407 69.6963C0.358543 66.6739 5.78436 62.9336 14.1165 59.9772C18.193 61.4034 22.9488 62.6313 28.1293 63.5286C29.6108 63.7836 31.0923 64.0103 32.5549 64.1992C31.2432 64.8604 29.941 65.5688 28.62 66.3149C24.0529 68.9124 20.0047 71.6798 16.6643 74.4H16.4284L16.4378 74.3906ZM7.96412 30.1776C8.78508 28.7797 10.9554 28.4869 12.635 28.4869C15.7207 28.4869 19.8349 29.422 24.4114 31.0844C26.6101 34.7586 29.4598 38.7255 32.8474 42.7114C33.8193 43.8543 34.8101 44.9594 35.8009 46.0172C34.3761 45.7055 32.9135 45.4127 31.4131 45.1577C28.8181 44.7043 26.2232 44.3643 23.7037 44.1282C21.4013 43.9204 19.1555 43.8071 17.0229 43.7882C10.2099 38.1966 6.39772 32.8506 7.95469 30.1871L7.96412 30.1776ZM21.2503 14.5742C21.7504 14.1586 22.4298 13.9508 23.2791 13.9508C26.3836 13.9508 31.1678 16.5954 36.3954 20.9497C37.1881 25.1528 38.4808 29.8471 40.2926 34.7302C40.8116 36.1376 41.3589 37.5071 41.9156 38.8389C40.6889 38.0644 39.415 37.2993 38.0939 36.5531C33.64 34.0124 29.1673 31.9344 25.0437 30.4138C20.5803 22.8576 18.8535 16.5482 21.2409 14.5742H21.2503ZM39.1508 4.39226C39.415 4.29781 39.7075 4.25058 40.0095 4.25058C42.9819 4.25058 47.1904 8.70871 51.1536 15.5281C50.4365 19.7313 50.0402 24.5672 50.0402 29.762C50.0402 30.2626 50.0402 30.7632 50.0496 31.2638C50.0496 31.6133 50.059 31.9628 50.0779 32.3122C50.0779 32.4445 50.0779 32.5862 50.0874 32.7184C50.0968 33.2095 50.1251 33.6912 50.144 34.1635C49.257 33.0206 48.3322 31.8778 47.3508 30.7255C44.0293 26.8246 40.5568 23.3582 37.2258 20.5624C35.65 11.9579 36.2161 5.45012 39.1508 4.39226ZM78.9999 4.25058C79.3018 4.25058 79.5849 4.29781 79.8586 4.39226C81.8968 5.11954 82.897 8.69927 82.5951 14.1964C82.4913 16.161 82.2176 18.2956 81.8119 20.5435C78.4809 23.3488 74.9895 26.8151 71.6585 30.7255C70.6866 31.8683 69.7618 33.0112 68.8654 34.1635C68.9315 32.7278 68.9692 31.2638 68.9692 29.762C68.9692 29.2426 68.9692 28.7325 68.9598 28.213C68.9598 28.1564 68.9598 28.0997 68.9598 28.043C68.9598 27.618 68.9409 27.193 68.9315 26.7679C68.922 26.3996 68.9031 26.0501 68.8937 25.6912C68.8937 25.5778 68.8937 25.4645 68.8843 25.3606C68.7239 21.8281 68.3747 18.5223 67.8652 15.5281C71.8378 8.69927 76.0369 4.25058 79.0188 4.25058H78.9999ZM95.7303 13.9508C96.5701 13.9508 97.2589 14.168 97.7591 14.5742C100.146 16.5482 98.429 22.8576 93.9657 30.4138C89.8421 31.9344 85.3788 34.0124 80.9249 36.5531C79.6038 37.2993 78.3299 38.0644 77.1032 38.8389C77.6694 37.5071 78.2072 36.1376 78.7262 34.7302C80.4814 29.9698 81.8024 25.2567 82.6045 20.9591C87.8322 16.586 92.6258 13.9413 95.7303 13.9413V13.9508ZM106.374 28.4869C108.054 28.4869 110.224 28.7797 111.045 30.1776C112.13 32.0383 110.564 35.4008 106.752 39.4245C105.393 40.8602 103.798 42.3242 102.015 43.7787C97.5515 43.8165 92.5786 44.2888 87.5963 45.1483C86.0959 45.4033 84.6333 45.6961 83.2179 46.0078C84.2087 44.9499 85.19 43.8448 86.1714 42.702C89.559 38.7255 92.4087 34.7586 94.6074 31.0749C99.1839 29.4126 103.298 28.4775 106.384 28.4775L106.374 28.4869ZM75.4613 59.505C78.4903 58.4943 81.7458 57.1437 85.0768 55.5096C86.9357 55.7269 88.8324 55.9914 90.7291 56.3219C95.3717 57.1248 99.7407 58.2393 103.572 59.5144C99.6935 60.8084 95.3245 61.8946 90.7291 62.688C88.8324 63.0186 86.9452 63.283 85.0768 63.5003C81.7364 61.8663 78.4809 60.5156 75.4519 59.505H75.4613ZM75.8954 64.0575C75.0178 64.0575 74.1685 64.0387 73.3476 64.0009C71.8944 62.9052 70.479 61.9607 69.1485 61.1768C70.6866 60.8934 72.3379 60.4778 74.0931 59.9394C77.0088 60.8556 80.1888 62.1118 83.4632 63.6608C80.8305 63.9159 78.2827 64.0481 75.8954 64.0481V64.0575ZM74.4988 64.8887C74.9612 64.8982 75.4141 64.9076 75.8954 64.9076C78.7262 64.9076 81.7836 64.7282 84.9258 64.3787C86.5866 65.2004 88.2757 66.0883 89.9459 67.0517C94.0318 69.3752 97.7496 71.8876 100.901 74.3811C96.7777 74.2867 92.2672 73.8239 87.7378 73.0399C85.8223 72.7093 83.9539 72.3221 82.1421 71.8971C79.5661 69.2335 76.9711 66.8722 74.4894 64.9076L74.4988 64.8887ZM93.258 87.4344C89.4741 85.9704 85.4071 84.0341 81.3495 81.7295C79.6604 80.7755 78.0374 79.7743 76.4899 78.7637C74.9895 75.3823 73.3759 72.3032 71.7246 69.6302C74.6687 70.7542 78.0374 71.7837 81.7175 72.6527C82.9914 73.9844 84.2559 75.3823 85.5014 76.8463C88.5305 80.4072 91.1537 84.0247 93.258 87.4249V87.4344ZM72.3191 87.7461C71.0735 86.2821 69.8939 84.7992 68.7805 83.3257C68.554 79.6988 68.1105 76.2513 67.4877 73.1533C69.8562 75.2029 72.6588 77.2997 75.7916 79.3399C76.537 81.0211 77.2353 82.7685 77.9053 84.5631C79.5189 88.9362 80.7362 93.2243 81.5288 97.1346C81.274 96.9174 81.0287 96.6907 80.7645 96.464C77.9713 93.961 75.0933 91.0141 72.3096 87.7461H72.3191ZM57.4382 73.7294C58.278 72.1237 58.9763 70.6031 59.5141 69.1768C60.052 70.6031 60.7503 72.1237 61.5901 73.7294C61.1843 76.7047 60.4955 80.001 59.5141 83.4674C58.5422 80.001 57.8439 76.6952 57.4382 73.7294ZM52.6351 72.1615C53.5221 71.3587 54.3431 70.5464 55.098 69.753C55.4754 69.3563 55.8246 68.969 56.1548 68.5912C56.1643 70.1119 56.2964 71.7837 56.5228 73.5689C55.1074 76.223 53.3145 79.0943 51.1914 82.0223C51.4745 78.4331 51.9746 75.0895 52.6257 72.1615H52.6351ZM51.5217 73.1438C50.9083 76.1946 50.4648 79.6232 50.2383 83.3352C49.1343 84.7992 47.9548 86.2821 46.6998 87.7461C43.6707 91.3069 40.519 94.4994 37.49 97.1346C38.2827 93.2243 39.4905 88.9362 41.1041 84.5631C41.7741 82.759 42.4723 81.0117 43.2178 79.3399C46.294 77.328 49.106 75.2312 51.5122 73.1533L51.5217 73.1438ZM48.653 69.0918C50.3421 68.4023 51.8708 67.6656 53.2107 66.9194C52.6917 68.3551 52.2294 69.9797 51.8236 71.7459C49.54 73.7955 46.8507 75.8735 43.8878 77.8759C45.3976 74.6078 47.0206 71.6326 48.653 69.0918ZM47.3037 69.6208C45.6523 72.2938 44.0293 75.3823 42.5384 78.7637C40.9814 79.7743 39.3584 80.7661 37.6787 81.7201C33.6117 84.0341 29.5353 85.9704 25.7419 87.4344C27.884 83.9775 30.5261 80.3694 33.5268 76.8463C34.7818 75.3823 36.0463 73.9844 37.3107 72.6527C40.9908 71.7837 44.3596 70.7542 47.3037 69.6208ZM45.9449 64.8415C46.1619 64.8321 46.3695 64.8226 46.5865 64.8132C47.2754 64.7754 47.9453 64.7187 48.587 64.662C49.4551 64.577 50.2855 64.4731 51.0687 64.3409C50.0873 65.5121 49.0965 66.8628 48.1152 68.374C45.2843 69.5169 42.01 70.5842 38.4525 71.5004C41.0003 68.9313 43.5481 66.6833 45.9543 64.8509L45.9449 64.8415ZM43.1329 64.9076C43.6047 64.9076 44.067 64.9076 44.5294 64.8887C42.0477 66.8533 39.4622 69.2146 36.8861 71.8782C35.0743 72.3032 33.206 72.6905 31.2904 73.021C26.761 73.805 22.2411 74.2678 18.1175 74.3717C21.2786 71.8782 24.987 69.3657 29.0729 67.0422C30.7526 66.0883 32.4322 65.191 34.093 64.3692C37.2352 64.7187 40.2926 64.8982 43.1234 64.8982L43.1329 64.9076ZM15.4848 59.5144C19.3064 58.2393 23.666 57.1342 28.2991 56.3314C30.1958 56.0008 32.0831 55.7269 33.942 55.5191C37.2824 57.1531 40.5379 58.4943 43.5669 59.5144C40.5379 60.525 37.2824 61.8757 33.942 63.5097C32.0831 63.2925 30.1958 63.028 28.2991 62.6974C23.666 61.8946 19.3064 60.7895 15.4848 59.5144ZM16.4567 44.6288C16.5322 44.6288 16.6171 44.6288 16.6926 44.6288C20.033 47.349 24.0906 50.107 28.6483 52.7044C29.9599 53.4506 31.2716 54.1495 32.5832 54.8201C31.1206 55.0091 29.6391 55.2263 28.1576 55.4813C22.9771 56.3786 18.2213 57.6159 14.1448 59.0327C5.78436 56.0764 0.349107 52.3455 0.896407 49.3136C1.02851 48.5674 1.54751 47.8968 2.38733 47.3018C4.77469 45.6205 9.83249 44.6099 16.4378 44.6099L16.4567 44.6288ZM31.2904 45.9983C33.206 46.3289 35.0743 46.7162 36.8861 47.1412C39.4622 49.8142 42.0477 52.166 44.5294 54.1306C44.0765 54.1212 43.6141 54.1118 43.1329 54.1118C40.2926 54.1118 37.2447 54.2912 34.1024 54.6407C32.4416 53.819 30.762 52.9311 29.0824 51.9677C24.9965 49.6442 21.2786 47.1318 18.1269 44.6382C19.9104 44.676 21.7599 44.7894 23.6565 44.9688C26.1477 45.1955 28.7238 45.545 31.2904 45.9889V45.9983ZM47.3037 49.3986C44.3596 48.2652 40.9908 47.2357 37.3107 46.3667C36.0368 45.0444 34.7724 43.637 33.5268 42.173C30.4978 38.6122 27.8745 34.9947 25.7702 31.5944C29.5542 33.0584 33.6212 34.9947 37.6787 37.2993C39.3678 38.2627 40.9908 39.2545 42.5384 40.2557C44.0387 43.637 45.6523 46.7256 47.3037 49.3986ZM51.833 47.3112C52.2388 49.068 52.7012 50.6737 53.2107 52.1094C51.8614 51.3632 50.3421 50.6359 48.653 49.937C47.0206 47.4057 45.407 44.4304 43.8972 41.1624C46.9073 43.2026 49.5872 45.2899 51.833 47.3112ZM51.5217 45.8661C49.1532 43.8259 46.36 41.7291 43.2178 39.6889C42.4818 38.0077 41.7741 36.2603 41.1041 34.4658C39.4905 30.0926 38.2732 25.8045 37.49 21.8942C40.519 24.5294 43.6707 27.7219 46.6998 31.2827C47.9453 32.7467 49.1249 34.2296 50.2383 35.6936C50.4648 39.3961 50.9083 42.8248 51.5217 45.8661ZM51.8708 16.7749C53.8052 20.2791 55.6736 24.3216 57.2777 28.6664C57.9477 30.4704 58.5328 32.2556 59.0612 34.0029C57.9949 37.5543 57.2211 40.9263 56.7399 43.996C55.2206 41.2757 53.324 38.3666 51.0876 35.3914C50.9744 33.5685 50.9177 31.6889 50.9177 29.7715C50.9177 25.1339 51.2669 20.7041 51.8708 16.7749ZM67.516 45.8661C68.1294 42.8248 68.5729 39.3867 68.7993 35.6842C69.9034 34.2107 71.0923 32.7373 72.3285 31.2827C75.367 27.7124 78.5281 24.52 81.5665 21.8753C80.7645 25.8423 79.5283 30.1304 77.9242 34.4658C77.2636 36.2603 76.5559 38.0077 75.8104 39.6889C72.6776 41.7291 69.8845 43.8259 67.516 45.8661ZM70.3846 49.937C68.6955 50.6359 67.1669 51.3632 65.8175 52.1094C65.9024 51.8638 65.9968 51.6182 66.0723 51.3632C66.4875 50.1259 66.8649 48.7658 67.1952 47.3112C69.441 45.2899 72.1303 43.2026 75.131 41.1624C73.6213 44.421 71.9982 47.3962 70.3752 49.9275L70.3846 49.937ZM71.7246 49.4081C73.3759 46.7351 74.9895 43.6559 76.4899 40.2745C78.0374 39.2639 79.6604 38.2722 81.3495 37.3088C85.4071 35.0041 89.4741 33.0679 93.258 31.6039C91.1537 35.0041 88.5305 38.6216 85.5014 42.1825C84.2559 43.6465 82.982 45.0538 81.7175 46.3761C78.0374 47.2451 74.6687 48.2746 71.7246 49.4081ZM73.0928 54.1873C71.215 54.2723 69.4976 54.4423 67.969 54.6879C68.9503 53.5167 69.9411 52.166 70.9225 50.6548C73.7534 49.5025 77.0277 48.4352 80.5852 47.5285C78.0374 50.0975 75.4896 52.3455 73.0834 54.1779L73.0928 54.1873ZM75.8954 54.1212C75.4236 54.1212 74.9612 54.1212 74.4988 54.1401C76.9805 52.1755 79.5661 49.8236 82.1516 47.1506C83.9539 46.7256 85.8223 46.3384 87.7472 46.0078C92.2861 45.2144 96.806 44.761 100.949 44.6571C97.7402 47.179 94.0035 49.682 89.9553 51.9866C88.2757 52.9406 86.596 53.8378 84.9353 54.6596C81.793 54.3101 78.7451 54.1306 75.9048 54.1306L75.8954 54.1212ZM69.1485 57.8426C70.479 57.0681 71.8944 56.1141 73.3476 55.0185C74.1685 54.9902 75.0178 54.9713 75.8859 54.9713C78.2733 54.9713 80.8305 55.1035 83.4632 55.3585C80.1794 56.9075 77.0088 58.1637 74.0931 59.0894C72.3474 58.551 70.6866 58.1354 69.1485 57.8521V57.8426ZM65.7514 59.5239C66.4592 59.2499 67.1952 58.9099 67.9595 58.5038C69.3938 58.7116 70.9508 59.061 72.6116 59.5239C70.9508 59.9867 69.3938 60.3267 67.9595 60.5439C67.1952 60.1378 66.4497 59.7978 65.7514 59.5239ZM67.969 64.3503C69.4976 64.6054 71.215 64.7754 73.0928 64.8509C75.4991 66.6833 78.0374 68.9313 80.5946 71.5004C77.0372 70.5936 73.7628 69.5263 70.9319 68.374C69.9506 66.8628 68.9598 65.5121 67.9784 64.3409L67.969 64.3503ZM65.3268 65.6632C64.9966 64.8604 64.6474 64.1425 64.2983 63.4814C65.0154 63.7175 65.7986 63.9253 66.6573 64.1048C67.5915 65.1532 68.5446 66.3811 69.4976 67.7695C67.9407 67.08 66.5441 66.3716 65.3363 65.6538L65.3268 65.6632ZM66.3082 68.4118C66.1478 67.8923 65.9779 67.4011 65.8175 66.9289C67.1574 67.6751 68.6955 68.4118 70.3846 69.1107C72.0171 71.6515 73.6307 74.6173 75.1405 77.8853C72.1303 75.8451 69.441 73.7578 67.1952 71.7365C66.931 70.5653 66.629 69.4696 66.3176 68.4212L66.3082 68.4118ZM62.8451 67.25C62.8074 66.3811 62.7319 65.5782 62.6186 64.8415C63.2131 65.3043 63.8831 65.7766 64.6285 66.2394C64.9305 66.9855 65.2136 67.7884 65.4778 68.6574C65.676 69.2996 65.8647 69.9702 66.044 70.6597C64.8078 69.4885 63.7321 68.3362 62.8451 67.25ZM62.496 73.5877C62.7224 71.8026 62.8451 70.1308 62.864 68.6101C63.8736 69.7719 65.0626 70.9809 66.412 72.2087C67.082 75.184 67.5538 78.5181 67.8369 82.0601C65.7137 79.1226 63.9114 76.2513 62.5054 73.5877H62.496ZM57.4098 63.9631C57.6835 63.6986 57.9288 63.4436 58.1553 63.1886C58.1553 63.5192 58.1742 63.8686 58.2119 64.237C57.9194 64.8037 57.542 65.3988 57.1079 66.0221C57.1739 65.276 57.2683 64.5865 57.4098 63.9725V63.9631ZM55.985 62.9997C56.3247 62.8486 56.6549 62.688 56.9475 62.5274C56.8342 62.8391 56.7304 63.1791 56.6455 63.5381C56.1643 63.9631 55.617 64.3976 54.9847 64.832C55.3056 64.152 55.6358 63.5475 55.985 63.0091V62.9997ZM54.7205 63.4814C54.3525 64.1331 54.0128 64.8698 53.6825 65.6632C52.4747 66.3811 51.0687 67.0895 49.5117 67.779C50.4648 66.3905 51.4179 65.1626 52.352 64.1142C53.2107 63.9348 54.0034 63.727 54.7205 63.4814ZM51.0498 58.5038C51.8142 58.9099 52.5596 59.2499 53.2579 59.5239C52.5502 59.7978 51.8142 60.1378 51.0498 60.5439C49.6155 60.3361 48.0586 59.9961 46.3978 59.5239C48.0586 59.061 49.6155 58.7116 51.0498 58.5038ZM49.8609 57.8426C48.3228 58.126 46.6714 58.5415 44.9257 59.0799C42.01 58.1637 38.83 56.8981 35.5462 55.3491C38.1789 55.0941 40.7266 54.9618 43.1234 54.9618C44.001 54.9618 44.8503 54.9807 45.6618 55.0091C47.1149 56.1047 48.5304 57.0492 49.8609 57.8332V57.8426ZM51.9557 55.7363C52.5313 56.3692 53.1069 56.9264 53.6637 57.4176C52.8805 57.4365 52.0501 57.512 51.1631 57.6348C49.9081 56.9548 48.5681 56.1141 47.1716 55.1129C48.9361 55.2357 50.5403 55.4435 51.9557 55.7363ZM48.0869 50.6643C49.0682 52.1755 50.0685 53.5262 51.0404 54.6974C49.5117 54.4423 47.7943 54.2818 45.926 54.1968C43.5197 52.3644 40.972 50.1164 38.4242 47.5473C41.9817 48.4541 45.256 49.5214 48.0869 50.6737V50.6643ZM56.1454 50.4376C55.1452 49.2853 53.9656 48.0857 52.6163 46.8578C51.9652 43.9298 51.4745 40.5957 51.1819 37.0065C53.2957 39.9345 55.098 42.8059 56.5134 45.46C56.2775 47.2545 56.1548 48.9169 56.1454 50.4376ZM59.0517 51.146C58.7781 51.9771 58.5705 52.7516 58.4195 53.4789C58.0232 52.8367 57.5608 52.1849 57.023 51.5049C56.9947 50.1164 57.0701 48.5674 57.2494 46.8956C57.9949 48.4069 58.6082 49.8425 59.0612 51.1554L59.0517 51.146ZM61.5807 45.3183C61.0239 46.3761 60.5332 47.4151 60.0992 48.4163C59.8821 48.9169 59.6934 49.3986 59.5141 49.8614C58.9763 48.4352 58.278 46.9145 57.4382 45.2994C57.8439 42.3242 58.5328 39.0278 59.5141 35.5614C60.4955 39.0278 61.1843 42.3336 61.5901 45.3088L61.5807 45.3183ZM62.2884 44.0243C61.8071 40.9546 61.0333 37.5732 59.9576 34.0124C60.486 32.265 61.0805 30.4704 61.7411 28.6759C63.3452 24.3311 65.2042 20.2885 67.148 16.7844C67.7614 20.7136 68.1011 25.1433 68.1011 29.7809C68.1011 31.6983 68.0445 33.5779 67.9218 35.4008C65.7326 38.3288 63.817 41.2474 62.2695 44.0148L62.2884 44.0243ZM66.3931 46.8673C65.0532 48.0857 63.8642 49.2853 62.8734 50.447C62.8545 48.9263 62.7319 47.2451 62.496 45.4505C63.9303 42.7492 65.7326 39.8967 67.8274 37.0065C67.5443 40.6051 67.0442 43.9487 66.3931 46.8767V46.8673ZM64.6285 52.8272C63.8831 53.2806 63.2131 53.7528 62.6186 54.2157C62.7319 53.4695 62.8074 52.6666 62.8451 51.8071C63.7227 50.7209 64.7984 49.5875 66.0157 48.4163C65.9685 48.6052 65.9213 48.7941 65.8741 48.9736C65.4967 50.3809 65.0815 51.6749 64.6285 52.8178V52.8272ZM64.2888 55.5758C64.6569 54.924 64.9966 54.1968 65.3268 53.3939C66.5347 52.6761 67.9312 51.9583 69.4882 51.2782C68.5351 52.6666 67.5821 53.904 66.6573 54.9429C65.7986 55.1224 65.006 55.3302 64.2888 55.5758ZM64.0341 57.4459C63.6566 57.4742 63.2886 57.512 62.9583 57.5687C63.1659 57.3231 63.3735 57.0492 63.5717 56.7659C64.1662 56.5203 64.8456 56.303 65.5816 56.0952C65.0532 56.6147 64.5342 57.0681 64.0341 57.4459ZM65.3457 57.4365C65.9119 56.9453 66.478 56.3786 67.0536 55.7552C68.4691 55.4624 70.0732 55.2546 71.8378 55.1318C70.4412 56.1236 69.1013 56.9737 67.8463 57.6537C66.9593 57.5309 66.1195 57.4554 65.3457 57.4365ZM64.2983 59.0516C63.9963 58.9666 63.7038 58.9005 63.4207 58.8532C63.7132 58.6927 63.9963 58.5038 64.2888 58.2865C64.5059 58.2771 64.7229 58.2771 64.9305 58.2771C65.4117 58.2771 65.9307 58.3054 66.4592 58.3526C65.7703 58.6643 65.1098 58.9194 64.487 59.1083C64.4304 59.0894 64.3643 59.0705 64.3077 59.0516H64.2983ZM65.3457 61.649C66.1289 61.6301 66.9593 61.5546 67.8463 61.4318C69.1013 62.1024 70.4412 62.9525 71.8378 63.9536C70.0732 63.8309 68.4691 63.6136 67.0536 63.3303C66.478 62.6974 65.9024 62.1307 65.3457 61.649ZM62.9678 61.5168C63.3075 61.5735 63.6566 61.6018 64.0341 61.6301C64.5342 62.0079 65.0532 62.4613 65.5816 62.9808C64.8456 62.7824 64.1756 62.5652 63.5811 62.3196C63.383 62.0268 63.1754 61.7624 62.9678 61.5168ZM62.0619 62.5463C62.3544 62.7069 62.6752 62.8675 63.0149 63.0186C63.3641 63.5475 63.6944 64.1614 64.0246 64.8415C63.4018 64.4165 62.8451 63.982 62.3733 63.5569C62.2884 63.198 62.1846 62.8675 62.0713 62.5463H62.0619ZM60.8069 64.2748C60.8446 63.9064 60.8635 63.5475 60.8729 63.2075C61.0994 63.4625 61.3353 63.727 61.6184 63.982C61.7599 64.6054 61.8543 65.2949 61.9204 66.041C61.4769 65.4271 61.1088 64.8321 60.8163 64.2653L60.8069 64.2748ZM54.9942 61.6301C55.3716 61.6018 55.7396 61.564 56.0699 61.5073C55.8623 61.7529 55.6641 62.0268 55.466 62.3102C54.8715 62.5558 54.1921 62.7824 53.4561 62.9808C53.9845 62.4613 54.5035 62.0079 55.0036 61.6301H54.9942ZM53.6825 61.649C53.1164 62.1307 52.5502 62.6974 51.9746 63.3303C50.5592 63.6136 48.955 63.8214 47.1904 63.9536C48.587 62.9525 49.9269 62.1024 51.1819 61.4318C52.069 61.5546 52.9088 61.6301 53.6825 61.649ZM55.6075 60.2322C55.3244 60.4023 55.0319 60.5817 54.7394 60.799C54.5224 60.8084 54.3053 60.8178 54.0977 60.8178C53.6165 60.8178 53.0975 60.7895 52.5691 60.7423C53.2579 60.4306 53.9279 60.1756 54.5412 59.9772C54.9093 60.0906 55.2584 60.1661 55.6075 60.2322ZM54.7394 58.2865C55.0319 58.5038 55.3244 58.6927 55.6075 58.8532C55.2678 58.9194 54.9093 59.0044 54.5412 59.1083C53.9184 58.9194 53.2579 58.6643 52.5691 58.3526C53.0975 58.3054 53.6165 58.2771 54.0977 58.2771C54.3053 58.2771 54.5224 58.2771 54.7394 58.2865ZM55.4566 56.7659C55.6547 57.0587 55.8623 57.3231 56.0699 57.5687C55.7302 57.512 55.3811 57.4742 55.0036 57.4459C54.5035 57.0681 53.9845 56.6147 53.4561 56.0952C54.1921 56.2936 54.8621 56.5108 55.4566 56.7659ZM53.7014 53.4034C53.7014 53.4034 53.7109 53.4411 53.7203 53.46C53.7486 53.5167 53.7675 53.5734 53.7958 53.6301C53.8618 53.7812 53.9184 53.9134 53.9845 54.0551C54.2298 54.6029 54.4846 55.1129 54.7394 55.5758C54.0222 55.3396 53.2296 55.1318 52.3709 54.9429C51.4462 53.8945 50.4931 52.6666 49.5401 51.2782C51.097 51.9677 52.503 52.6761 53.7108 53.3939L53.7014 53.4034ZM58.1553 55.8686C57.9383 55.6135 57.6929 55.3491 57.4193 55.0941C57.2777 54.4707 57.1739 53.7812 57.1079 53.035C57.5514 53.6489 57.91 54.2345 58.2119 54.8013C58.1742 55.1791 58.1553 55.5285 58.1459 55.8686H58.1553ZM59.9388 54.6596C59.7689 54.9902 59.6274 55.3207 59.5141 55.6419C59.4009 55.3302 59.2593 55.009 59.0989 54.6785C59.1839 54.0456 59.3254 53.3656 59.5236 52.6289C59.7217 53.3561 59.8633 54.0362 59.9482 54.669L59.9388 54.6596ZM61.609 55.0941C61.3353 55.3585 61.09 55.6135 60.8635 55.878C60.8635 55.538 60.8446 55.1885 60.7974 54.8107C61.0994 54.244 61.4674 53.6489 61.9015 53.035C61.8354 53.7812 61.7316 54.4707 61.5995 55.0941H61.609ZM63.0338 56.0575C62.6847 56.2086 62.3638 56.3692 62.0619 56.5392C62.1751 56.2275 62.2789 55.8875 62.3638 55.5285C62.8451 55.1035 63.3924 54.669 64.0246 54.244C63.7038 54.924 63.3735 55.5285 63.0338 56.0669V56.0575ZM56.6644 55.5285C56.7493 55.8875 56.8531 56.218 56.9663 56.5392C56.6738 56.3692 56.353 56.218 56.0133 56.0669C55.6641 55.538 55.3339 54.924 55.0036 54.244C55.6264 54.669 56.1831 55.1035 56.6549 55.5285H56.6644ZM64.2983 60.7895C64.0058 60.5723 63.7132 60.3928 63.4301 60.2228C63.7699 60.1567 64.1284 60.0811 64.4964 59.9678C65.1192 60.1567 65.7798 60.4117 66.4686 60.7328C65.9402 60.7801 65.4212 60.8084 64.9399 60.8084C64.7323 60.8084 64.5247 60.8084 64.2983 60.7895ZM62.0053 51.5049C61.4674 52.1849 60.9956 52.8555 60.5993 53.4884C60.4483 52.7516 60.2407 51.9677 59.9671 51.146C60.2313 50.3904 60.5332 49.597 60.9012 48.7563C61.1655 48.1424 61.4674 47.5096 61.7788 46.8673C61.9581 48.5485 62.0336 50.1164 62.0053 51.5143V51.5049ZM56.1831 51.8071C56.2114 52.6666 56.2869 53.4695 56.4002 54.2157C55.8057 53.7528 55.1357 53.2806 54.3997 52.8272C53.8901 51.5332 53.4183 50.0503 53.0031 48.4163C54.2204 49.5875 55.2961 50.7209 56.1831 51.8071ZM59.4575 66.2394C59.2877 65.5971 59.165 64.9926 59.0895 64.4259C59.2593 64.0953 59.4009 63.7647 59.5141 63.4436C59.6368 63.7647 59.7689 64.0859 59.9388 64.4165C59.8538 65.0493 59.7123 65.7293 59.5141 66.4566C59.4952 66.3811 59.4764 66.3149 59.4575 66.2394ZM61.7788 72.171C61.0334 70.6597 60.4294 69.2335 59.9671 67.9112C60.2407 67.0895 60.4483 66.3055 60.5993 65.5688C60.9956 66.211 61.4674 66.8722 62.0053 67.5617C62.0336 68.9502 61.9581 70.4992 61.7788 72.171ZM35.5556 63.6986C38.8394 62.1496 42.01 60.8934 44.9352 59.9772C46.6809 60.5156 48.3417 60.9312 49.8703 61.2145C48.5398 61.9985 47.1244 62.943 45.6712 64.0292C44.8503 64.067 44.0104 64.0859 43.1329 64.0859C40.7455 64.0859 38.1883 63.9537 35.5556 63.6986ZM54.4752 69.2052C54.0128 69.6963 53.5127 70.1875 52.9937 70.6881C53.4089 69.0446 53.8807 67.5523 54.3903 66.2488C55.1357 65.786 55.7963 65.3232 56.3907 64.8509C56.2775 65.5971 56.202 66.4 56.1643 67.2689C55.6641 67.8923 55.098 68.544 54.4658 69.2052H54.4752ZM57.0324 67.5712C57.5703 66.8911 58.0421 66.2205 58.4384 65.5877C58.5894 66.3244 58.797 67.0989 59.0706 67.9206C58.6177 69.2335 58.0043 70.6692 57.2589 72.1804C57.0796 70.5086 57.0041 68.9596 57.0324 67.5712ZM64.1096 5.50679C64.1473 5.5918 64.185 5.67681 64.2322 5.77126C64.2794 5.87515 64.3266 5.97905 64.3738 6.08295C65.4212 8.5387 66.2988 11.7406 66.9498 15.4337C64.8078 19.1645 62.7413 23.5754 60.9579 28.383C60.4389 29.7904 59.9576 31.1883 59.5236 32.5578C59.0895 31.1883 58.6082 29.7998 58.0893 28.383C56.3152 23.5754 54.2487 19.1645 52.0973 15.4337C53.6071 6.81967 56.4002 0.878647 59.5236 0.878647C59.6651 0.878647 59.7972 0.888092 59.9388 0.916428C61.4014 1.17145 62.8545 2.78658 64.119 5.50679H64.1096ZM51.0876 83.6658C53.324 80.6905 55.2301 77.7814 56.7399 75.0612C57.2211 78.1214 57.9949 81.4934 59.0706 85.0542C58.5422 86.8016 57.9477 88.5962 57.2872 90.3907C55.683 94.7355 53.8241 98.7875 51.8802 102.282C51.2763 98.353 50.9272 93.9232 50.9272 89.2857C50.9272 87.3683 50.9838 85.4887 51.097 83.6658H51.0876ZM68.1199 89.2857C68.1199 93.9232 67.7708 98.353 67.1669 102.282C65.2325 98.7875 63.3641 94.7355 61.7599 90.3907C61.09 88.5867 60.5049 86.8016 59.9765 85.0542C61.0428 81.5028 61.8166 78.1309 62.2978 75.0612C63.817 77.7814 65.7137 80.6905 67.9595 83.6752C68.0633 85.5076 68.1199 87.3777 68.1199 89.2857ZM98.1743 97.6919C98.212 97.8241 98.2497 97.9563 98.2875 98.0791C98.3347 98.2586 98.3913 98.4475 98.4385 98.627C98.4385 98.6458 98.4385 98.6647 98.4479 98.6742C99.0613 101.224 98.948 103.132 98.061 104.171C97.9761 104.275 97.8723 104.37 97.7685 104.464C97.2684 104.88 96.589 105.087 95.7397 105.087C92.6352 105.087 87.851 102.443 82.6234 98.0886C81.8402 93.8855 80.538 89.1912 78.7262 84.2986C78.2072 82.8913 77.6599 81.5312 77.1032 80.1994C78.3299 80.9644 79.6038 81.7389 80.9249 82.4851C85.3788 85.0164 89.8421 87.1038 93.9657 88.6245C95.8907 91.8925 97.3156 94.9244 98.1082 97.4746C98.1271 97.5408 98.1554 97.6163 98.1743 97.6919ZM102.581 44.6571C111.508 44.6571 117.603 46.4989 118.122 49.3608C118.5 51.4671 115.858 54.1118 110.875 56.5958C109.101 57.4837 107.101 58.3149 104.931 59.0894C100.845 57.6632 96.07 56.4353 90.8801 55.5285C89.3986 55.2735 87.9171 55.0468 86.4545 54.8674C87.7661 54.1968 89.0683 53.4978 90.3894 52.7516C94.8338 50.2203 98.9103 47.4529 102.336 44.676C102.421 44.676 102.505 44.676 102.59 44.676L102.581 44.6571ZM106.176 59.5333C108.016 58.8532 109.724 58.1165 111.262 57.3515C116.688 54.6407 119.425 51.7505 118.962 49.2097C118.377 45.9228 112.555 43.9204 103.345 43.8165C104.836 42.5508 106.195 41.2852 107.375 40.0384C111.526 35.6653 113.102 32.0289 111.791 29.7904C110.97 28.3831 109.149 27.6747 106.374 27.6747C103.421 27.6747 99.5519 28.4964 95.2585 29.9793C99.5991 22.3665 100.977 16.161 98.3158 13.9602C97.6553 13.4219 96.7871 13.1385 95.7397 13.1385C92.6163 13.1385 87.9454 15.6131 82.8404 19.7407C83.1613 17.8139 83.3689 15.991 83.4726 14.2719C83.8029 8.29312 82.6328 4.51505 80.17 3.6272C79.8114 3.49497 79.4245 3.42885 79.0188 3.42885C75.8576 3.42885 71.6396 7.63196 67.6387 14.2625C67.0253 11.0795 66.2327 8.29312 65.2985 6.06406C65.2891 6.02628 65.2702 5.9885 65.2608 5.96016C65.1853 5.79015 65.1098 5.62958 65.0437 5.45957C64.9777 5.32733 64.9211 5.1951 64.8644 5.06287C64.855 5.03453 64.8361 5.01564 64.8267 4.98731C63.2886 1.7665 61.4674 0.0380249 59.533 0.0380249C56.051 0.0380249 53.0598 5.6768 51.4179 14.2719C47.4075 7.64141 43.1895 3.43829 40.0378 3.43829C39.632 3.43829 39.2451 3.50441 38.8866 3.63664C35.6122 4.80785 34.763 11.1078 36.1973 19.7313C31.0923 15.6131 26.4213 13.148 23.3074 13.148C22.26 13.148 21.3824 13.4219 20.7313 13.9697C18.0609 16.1704 19.448 22.3759 23.7886 29.9887C19.4857 28.5058 15.6358 27.6841 12.6728 27.6841C9.90798 27.6841 8.07736 28.3925 7.25641 29.7998C5.52015 32.7751 8.96436 38.1305 15.6829 43.8259C10.1345 43.8921 5.82211 44.6382 3.14222 45.9511C1.37765 46.8106 0.320798 47.9157 0.0848931 49.2191C-0.519024 52.5911 4.57653 56.4636 12.8521 59.5522C4.53878 62.5841 -0.556769 66.4566 0.0471483 69.838C0.641629 73.1249 6.4449 75.1179 15.6452 75.2312C8.92662 80.9267 5.47297 86.2821 7.21867 89.2573C8.03961 90.6647 9.8608 91.373 12.635 91.373C15.598 91.373 19.4669 90.5419 23.7698 89.059C22.7978 90.7591 21.9675 92.4026 21.288 93.9705C18.9007 99.4865 18.6931 103.425 20.6936 105.087C21.3541 105.635 22.2222 105.909 23.2697 105.909C26.3836 105.909 31.0545 103.444 36.1595 99.3259C34.7252 107.949 35.5745 114.249 38.8488 115.421C39.2168 115.553 39.5943 115.619 40 115.619C43.1517 115.619 47.3697 111.416 51.3801 104.785C53.022 113.371 56.0133 119.01 59.4952 119.01C62.9772 119.01 65.9685 113.371 67.6104 104.785C71.6113 111.416 75.8388 115.619 78.9904 115.619C79.3962 115.619 79.7831 115.553 80.1417 115.421C83.416 114.249 84.2653 107.949 82.831 99.3259C87.9265 103.444 92.5975 105.909 95.7208 105.909C96.7777 105.909 97.6458 105.635 98.2969 105.087C99.8728 103.784 100.071 101.064 98.9292 97.2763C98.9008 97.1629 98.8631 97.0591 98.8348 96.9457C98.8065 96.8607 98.7687 96.7663 98.7404 96.6718C97.995 94.405 96.8154 91.8264 95.2396 89.059C99.5331 90.5419 103.392 91.373 106.355 91.373C109.12 91.373 110.951 90.6647 111.772 89.2573C113.508 86.2821 110.064 80.9267 103.345 75.2312C112.546 75.1179 118.358 73.1249 118.943 69.838C119.547 66.4566 114.442 62.5841 106.157 59.4955L106.176 59.5333Z" fill="#7203A9"/>
</g>
<defs>
<clipPath id="clip0_2006_131">
<rect width="119" height="119" fill="white" transform="translate(0 0.000244141)"/>
</clipPath>
</defs>
</svg>
